<svg xmlns="http://www.w3.org/2000/svg" xmlns:xlink="http://www.w3.org/1999/xlink" viewBox="0 0 3739.3276 840.7226"><defs><style>.cls-1,.cls-10,.cls-11,.cls-12,.cls-13,.cls-14,.cls-15,.cls-16,.cls-17,.cls-18,.cls-19,.cls-2,.cls-20,.cls-21,.cls-22,.cls-23,.cls-24,.cls-25,.cls-26,.cls-27,.cls-28,.cls-29,.cls-3,.cls-30,.cls-31,.cls-32,.cls-33,.cls-34,.cls-4,.cls-5,.cls-6,.cls-7,.cls-8,.cls-9{fill:#fff;}.cls-1,.cls-10,.cls-11,.cls-12,.cls-13,.cls-14,.cls-15,.cls-16,.cls-17,.cls-18,.cls-19,.cls-2,.cls-20,.cls-21,.cls-22,.cls-23,.cls-24,.cls-25,.cls-26,.cls-27,.cls-28,.cls-29,.cls-30,.cls-31,.cls-32,.cls-33,.cls-34,.cls-4,.cls-5,.cls-6,.cls-7,.cls-8,.cls-9{stroke-miterlimit:10;}.cls-1{stroke:url(#Dégradé_sans_nom_5);}.cls-2{stroke:#fff;stroke-width:8px;}.cls-4{stroke:url(#Dégradé_sans_nom_5-2);}.cls-5{stroke:url(#Dégradé_sans_nom_5-3);}.cls-6{stroke:url(#Dégradé_sans_nom_5-4);}.cls-7{stroke:url(#Dégradé_sans_nom_5-5);}.cls-8{stroke:url(#Dégradé_sans_nom_5-6);}.cls-9{stroke:url(#Dégradé_sans_nom_5-7);}.cls-10{stroke:url(#Dégradé_sans_nom_5-8);}.cls-11{stroke:url(#Dégradé_sans_nom_5-9);}.cls-12{stroke:url(#Dégradé_sans_nom_5-10);}.cls-13{stroke:url(#Dégradé_sans_nom_5-11);}.cls-14{stroke:url(#Dégradé_sans_nom_5-12);}.cls-15{stroke:url(#Dégradé_sans_nom_5-13);}.cls-16{stroke:url(#Dégradé_sans_nom_5-14);}.cls-17{stroke:url(#Dégradé_sans_nom_5-15);}.cls-18{stroke:url(#Dégradé_sans_nom_5-16);}.cls-19{stroke:url(#Dégradé_sans_nom_5-17);}.cls-20{stroke:url(#Dégradé_sans_nom_5-18);}.cls-21{stroke:url(#Dégradé_sans_nom_5-19);}.cls-22{stroke:url(#Dégradé_sans_nom_5-20);}.cls-23{stroke:url(#Dégradé_sans_nom_5-21);}.cls-24{stroke:url(#Dégradé_sans_nom_5-22);}.cls-25{stroke:url(#Dégradé_sans_nom_5-23);}.cls-26{stroke:url(#Dégradé_sans_nom_5-24);}.cls-27{stroke:url(#Dégradé_sans_nom_5-25);}.cls-28{stroke:url(#Dégradé_sans_nom_5-26);}.cls-29{stroke:url(#Dégradé_sans_nom_5-27);}.cls-30{stroke:url(#Dégradé_sans_nom_5-28);}.cls-31{stroke:url(#Dégradé_sans_nom_5-29);}.cls-32{stroke:url(#Dégradé_sans_nom_5-30);}.cls-33{stroke:url(#Dégradé_sans_nom_5-31);}.cls-34{stroke:url(#Dégradé_sans_nom_5-32);}</style><linearGradient id="Dégradé_sans_nom_5" x1="995.6281" y1="5.17" x2="995.6281" y2="840.7226" gradientUnits="userSpaceOnUse"><stop offset="0" stop-color="#fff"/><stop offset="1" stop-color="#324528"/></linearGradient><linearGradient id="Dégradé_sans_nom_5-2" x1="-4760.6327" y1="229.3258" x2="-4760.6327" y2="403.3087" gradientTransform="matrix(-1, 0, 0, 1, -4355.481, 0)" xlink:href="#Dégradé_sans_nom_5"/><linearGradient id="Dégradé_sans_nom_5-3" x1="-4689.6327" y1="163.1062" x2="-4689.6327" y2="335.683" gradientTransform="matrix(-1, 0, 0, 1, -4355.481, 0)" xlink:href="#Dégradé_sans_nom_5"/><linearGradient id="Dégradé_sans_nom_5-4" x1="-4654.1327" y1="130.9161" x2="-4654.1327" y2="300.9039" gradientTransform="matrix(-1, 0, 0, 1, -4355.481, 0)" xlink:href="#Dégradé_sans_nom_5"/><linearGradient id="Dégradé_sans_nom_5-5" x1="-4725.6327" y1="196.2161" x2="-4725.6327" y2="370.4619" gradientTransform="matrix(-1, 0, 0, 1, -4355.481, 0)" xlink:href="#Dégradé_sans_nom_5"/><linearGradient id="Dégradé_sans_nom_5-6" x1="-4760.6327" y1="459.5026" x2="-4760.6327" y2="636.2557" gradientTransform="matrix(-1, 0, 0, 1, -4355.481, 0)" xlink:href="#Dégradé_sans_nom_5"/><linearGradient id="Dégradé_sans_nom_5-7" x1="-4689.6327" y1="531.4036" x2="-4689.6327" y2="711.8417" gradientTransform="matrix(-1, 0, 0, 1, -4355.481, 0)" xlink:href="#Dégradé_sans_nom_5"/><linearGradient id="Dégradé_sans_nom_5-8" x1="-4725.6327" y1="494.426" x2="-4725.6327" y2="674.0487" gradientTransform="matrix(-1, 0, 0, 1, -4355.481, 0)" xlink:href="#Dégradé_sans_nom_5"/><linearGradient id="Dégradé_sans_nom_5-9" x1="-4654.1327" y1="568.3813" x2="-4654.1327" y2="748.5848" gradientTransform="matrix(-1, 0, 0, 1, -4355.481, 0)" xlink:href="#Dégradé_sans_nom_5"/><linearGradient id="Dégradé_sans_nom_5-10" x1="-4827.1327" y1="291.8666" x2="-4827.1327" y2="564.8693" gradientTransform="matrix(-1, 0, 0, 1, -4355.481, 0)" xlink:href="#Dégradé_sans_nom_5"/><linearGradient id="Dégradé_sans_nom_5-11" x1="-4462.1327" y1="4.17" x2="-4462.1327" y2="113.4837" gradientTransform="matrix(-1, 0, 0, 1, -4355.481, 0)" xlink:href="#Dégradé_sans_nom_5"/><linearGradient id="Dégradé_sans_nom_5-12" x1="-4794.6327" y1="260.5962" x2="-4794.6327" y2="600.5625" gradientTransform="matrix(-1, 0, 0, 1, -4355.481, 0)" xlink:href="#Dégradé_sans_nom_5"/><linearGradient id="Dégradé_sans_nom_5-13" x1="-4620.1327" y1="100.5655" x2="-4620.1327" y2="267.091" gradientTransform="matrix(-1, 0, 0, 1, -4355.481, 0)" xlink:href="#Dégradé_sans_nom_5"/><linearGradient id="Dégradé_sans_nom_5-14" x1="-4588.1327" y1="72.0542" x2="-4588.1327" y2="235.2103" gradientTransform="matrix(-1, 0, 0, 1, -4355.481, 0)" xlink:href="#Dégradé_sans_nom_5"/><linearGradient id="Dégradé_sans_nom_5-15" x1="-4526.1327" y1="15.0318" x2="-4526.1327" y2="175.3131" gradientTransform="matrix(-1, 0, 0, 1, -4355.481, 0)" xlink:href="#Dégradé_sans_nom_5"/><linearGradient id="Dégradé_sans_nom_5-16" x1="-4557.1327" y1="43.543" x2="-4557.1327" y2="205.2617" gradientTransform="matrix(-1, 0, 0, 1, -4355.481, 0)" xlink:href="#Dégradé_sans_nom_5"/><linearGradient id="Dégradé_sans_nom_5-17" x1="-4494.1327" y1="4.17" x2="-4494.1327" y2="145.3646" gradientTransform="matrix(-1, 0, 0, 1, -4355.481, 0)" xlink:href="#Dégradé_sans_nom_5"/><linearGradient id="Dégradé_sans_nom_5-18" x1="-4907.1327" y1="9.022" x2="-4907.1327" y2="839.7225" gradientTransform="matrix(-1, 0, 0, 1, -4355.481, 0)" xlink:href="#Dégradé_sans_nom_5"/><linearGradient id="Dégradé_sans_nom_5-19" x1="-4366.5568" y1="4.17" x2="-4366.5568" y2="25.5703" gradientTransform="matrix(-1, 0, 0, 1, -4355.481, 0)" xlink:href="#Dégradé_sans_nom_5"/><linearGradient id="Dégradé_sans_nom_5-20" x1="-4947.1327" y1="9.022" x2="-4947.1327" y2="839.7225" gradientTransform="matrix(-1, 0, 0, 1, -4355.481, 0)" xlink:href="#Dégradé_sans_nom_5"/><linearGradient id="Dégradé_sans_nom_5-21" x1="-4865.1327" y1="9.022" x2="-4865.1327" y2="839.7225" gradientTransform="matrix(-1, 0, 0, 1, -4355.481, 0)" xlink:href="#Dégradé_sans_nom_5"/><linearGradient id="Dégradé_sans_nom_5-22" x1="-4620.1327" y1="604.3318" x2="-4620.1327" y2="783.2284" gradientTransform="matrix(-1, 0, 0, 1, -4355.481, 0)" xlink:href="#Dégradé_sans_nom_5"/><linearGradient id="Dégradé_sans_nom_5-23" x1="-4985.9478" y1="9.022" x2="-4985.9478" y2="839.7225" gradientTransform="matrix(-1, 0, 0, 1, -4355.481, 0)" xlink:href="#Dégradé_sans_nom_5"/><linearGradient id="Dégradé_sans_nom_5-24" x1="-4401.1327" y1="4.17" x2="-4401.1327" y2="53.5868" gradientTransform="matrix(-1, 0, 0, 1, -4355.481, 0)" xlink:href="#Dégradé_sans_nom_5"/><linearGradient id="Dégradé_sans_nom_5-25" x1="-4404.911" y1="831.3337" x2="-4404.911" y2="834.8704" gradientTransform="matrix(-1, 0, 0, 1, -4355.481, 0)" xlink:href="#Dégradé_sans_nom_5"/><linearGradient id="Dégradé_sans_nom_5-26" x1="-4557.1327" y1="670.07" x2="-4557.1327" y2="834.8704" gradientTransform="matrix(-1, 0, 0, 1, -4355.481, 0)" xlink:href="#Dégradé_sans_nom_5"/><linearGradient id="Dégradé_sans_nom_5-27" x1="-4526.1327" y1="701.9118" x2="-4526.1327" y2="834.8704" gradientTransform="matrix(-1, 0, 0, 1, -4355.481, 0)" xlink:href="#Dégradé_sans_nom_5"/><linearGradient id="Dégradé_sans_nom_5-28" x1="-4588.1327" y1="638.228" x2="-4588.1327" y2="815.7723" gradientTransform="matrix(-1, 0, 0, 1, -4355.481, 0)" xlink:href="#Dégradé_sans_nom_5"/><linearGradient id="Dégradé_sans_nom_5-29" x1="-4462.1327" y1="767.6498" x2="-4462.1327" y2="834.8704" gradientTransform="matrix(-1, 0, 0, 1, -4355.481, 0)" xlink:href="#Dégradé_sans_nom_5"/><linearGradient id="Dégradé_sans_nom_5-30" x1="-4494.1327" y1="733.7536" x2="-4494.1327" y2="834.8704" gradientTransform="matrix(-1, 0, 0, 1, -4355.481, 0)" xlink:href="#Dégradé_sans_nom_5"/><linearGradient id="Dégradé_sans_nom_5-31" x1="-4431.1327" y1="799.4919" x2="-4431.1327" y2="834.8704" gradientTransform="matrix(-1, 0, 0, 1, -4355.481, 0)" xlink:href="#Dégradé_sans_nom_5"/><linearGradient id="Dégradé_sans_nom_5-32" x1="-4431.1327" y1="4.17" x2="-4431.1327" y2="83.5353" gradientTransform="matrix(-1, 0, 0, 1, -4355.481, 0)" xlink:href="#Dégradé_sans_nom_5"/></defs><g id="Layer_2" data-name="Layer 2"><g id="Calque_1" data-name="Calque 1"><polygon class="cls-1" points="1314.282 5.67 1163.372 5.67 812.095 328.746 812.095 10.522 676.237 10.522 676.237 235.232 676.237 238.139 676.237 322.577 676.237 395.388 676.237 429.043 676.237 542.852 676.237 840.223 812.095 840.223 812.095 524.965 1107.774 835.371 1266.626 835.371 873.467 431.534 1314.282 5.67"/><path class="cls-2" d="M1756.2264,477.7382H1715.094L1555.3675,278.0029,1411.407,485.67V9.0458h30.8479V384.7213L1702.07,9.0458h39.0751l-167.2693,240.836Z"/><path class="cls-2" d="M2088.0176,280.1668,2263.5141,9.0458h37.0178L2103.0993,315.5V477.7382h-30.8479V315.5L1874.8188,9.0458h37.0178Z"/><path class="cls-2" d="M2407.4764,259.9775V226.8086h268.7284v33.1689Z"/><path class="cls-2" d="M3043.6448,482.7861a211.6689,211.6689,0,0,1-113.1126-32.087q-52.105-32.076-82.2628-87.2491-30.1737-55.162-30.1634-120.058,0-64.8937,30.1634-120.056,30.16-55.162,82.2628-87.2491a215.4153,215.4153,0,0,1,226.2251,0q52.0882,32.0938,82.2628,87.2491,30.16,55.1592,30.1634,120.056,0,64.8969-30.1634,120.058-30.1737,55.1622-82.2628,87.2491A211.7158,211.7158,0,0,1,3043.6448,482.7861Zm0-445.6172A180.6088,180.6088,0,0,0,2946.3,64.93q-44.5708,27.765-70.9516,74.9895-26.4,47.2344-26.3929,103.4725,0,56.2422,26.3929,103.4726,26.38,47.2374,70.9516,74.9915a184.55,184.55,0,0,0,194.689,0q44.5539-27.75,70.6093-74.9915,26.0469-47.2165,26.0506-103.4726,0-56.2421-26.0506-103.4725Q3185.54,92.703,3140.9893,64.93A180.6557,180.6557,0,0,0,3043.6448,37.1689Z"/><path class="cls-2" d="M3713.0473,276.2009q22.27,30.6549,22.28,69.5817a121.5678,121.5678,0,0,1-10.6249,49.3944,131.1694,131.1694,0,0,1-30.5075,42.9026,148.3572,148.3572,0,0,1-48.329,29.203,164.831,164.831,0,0,1-58.6117,10.4556H3423.4134l.6845-468.6924h127.5078q62.3727,0,99.4018,36.7748A116.6522,116.6522,0,0,1,3677.4,84.0373a112.58,112.58,0,0,1,9.254,44.7066q0,28.8478-12.6822,52.6362-12.6933,23.7952-31.19,36.7748l-6.17,4.3258a241.0136,241.0136,0,0,1,22.6225,8.6537Q3690.7568,245.5659,3713.0473,276.2009Zm-258.1-63.0938h95.2872q18.51,0,30.85-2.162a119.4666,119.4666,0,0,0,24.678-7.2117q17.8187-7.9248,33.9337-27.3991,16.101-19.4694,16.11-47.59a80.2454,80.2454,0,0,0-11.9976-42.1826q-12.0024-19.8255-35.6469-32.087-23.6493-12.2536-56.5563-12.26h-96.6581ZM3648.95,430.87q26.7379-14.4167,41.1324-37.1348Q3704.48,371.02,3704.48,345.7826a83.4471,83.4471,0,0,0-16.7967-50.8343q-16.806-22.7123-40.1037-33.5289-32.9041-15.1434-82.9473-15.1434H3454.9476V445.2913h132.3069Q3622.215,445.2913,3648.95,430.87Z"/><path class="cls-3" d="M1521.0787,581.1443H1398.3673V562.928H1668.624v18.2163H1545.9126V840.1238h-24.8339Z"/><path class="cls-3" d="M2041.6251,840.1238l-81.3209-92.6629a303.8177,303.8177,0,0,1-33.1132,1.98H1829.8v90.6825h-24.8339V562.928H1927.191q64.2759,0,100.8,24.75,36.5208,24.7527,36.52,68.7049,0,32.8737-20.6952,55.241-20.7027,22.3779-59.1638,31.4823l85.2163,97.018ZM1927.191,731.6223q54.5292,0,83.2677-19.603,28.7274-19.6,28.7311-55.6368,0-36.03-28.7311-55.6367-28.7358-19.6023-83.2677-19.6015H1829.8v150.478Z"/><path class="cls-3" d="M2441.4049,762.1137H2243.7014l-43.3373,78.01h-26.7825L2330.38,562.928h24.834l156.8,277.1958h-26.7825Zm-9.2525-17.029-89.5983-159.9811-89.1135,159.9811Z"/><path class="cls-3" d="M2903.5194,562.928,2751.59,840.1238h-24.8339L2574.8271,562.928h27.2692l137.8079,251.0595L2877.71,562.928Z"/><path class="cls-3" d="M3268.7317,821.9076v18.2162H3033.5348V562.928h227.8929v18.2163h-203.059V690.4389h181.6337v17.819H3058.3687v113.65Z"/><path class="cls-3" d="M3434.2917,562.928h24.834v258.98h196.2416v18.2162H3434.2917Z"/><polygon class="cls-4" points="412.652 402.13 397.652 387.639 397.652 230.465 412.652 244.261 412.652 402.13"/><polygon class="cls-5" points="342.652 334.505 325.652 318.081 325.652 164.245 342.652 179.881 342.652 334.505"/><polygon class="cls-6" points="306.652 299.726 290.652 284.268 290.652 132.055 306.652 146.771 306.652 299.726"/><polygon class="cls-7" points="378.652 369.284 361.652 352.86 361.652 197.355 378.652 212.99 378.652 369.284"/><polygon class="cls-8" points="397.652 476.14 412.652 460.733 412.652 619.259 397.652 635.006 397.652 476.14"/><polygon class="cls-9" points="325.652 550.096 342.652 532.634 342.652 692.745 325.652 710.592 325.652 550.096"/><polygon class="cls-10" points="361.652 513.118 378.652 495.656 378.652 654.952 361.652 672.799 361.652 513.118"/><polygon class="cls-11" points="290.652 586.046 306.652 569.612 306.652 730.538 290.652 747.335 290.652 586.046"/><polygon class="cls-12" points="477.652 551.022 465.652 563.619 465.652 293.006 477.652 304.042 477.652 551.022"/><polygon class="cls-13" points="100.652 4.67 112.652 4.67 112.652 112.305 100.652 100.713 100.652 4.67"/><polygon class="cls-14" points="431.652 441.217 442.052 430.534 431.652 420.486 431.652 261.735 446.652 275.531 446.652 583.566 431.652 599.313 431.652 441.217"/><polygon class="cls-15" points="271.652 265.913 257.652 252.388 257.652 101.705 271.652 114.581 271.652 265.913"/><polygon class="cls-16" points="238.652 234.032 226.652 222.439 226.652 73.193 238.652 84.23 238.652 234.032"/><polygon class="cls-17" points="176.652 174.135 164.652 162.542 164.652 16.171 176.652 27.208 176.652 174.135"/><polygon class="cls-18" points="207.652 204.083 195.652 192.491 195.652 44.682 207.652 55.719 207.652 204.083"/><polygon class="cls-19" points="145.652 144.186 131.652 130.661 131.652 4.67 145.652 4.67 145.652 144.186"/><rect class="cls-20" x="541.6517" y="9.522" width="20" height="829.7004"/><polygon class="cls-21" points="21.652 4.67 21.652 24.392 1.237 4.67 21.652 4.67"/><rect class="cls-22" x="580.6517" y="9.522" width="22" height="829.7004"/><polygon class="cls-23" points="496.652 321.517 503.424 327.746 503.424 9.522 522.652 9.522 522.652 839.222 503.424 839.222 503.424 523.965 496.652 531.075 496.652 321.517"/><polygon class="cls-24" points="257.652 619.942 271.652 605.562 271.652 767.281 257.652 781.979 257.652 619.942"/><polygon class="cls-25" points="621.652 9.522 639.282 9.522 639.282 234.232 639.282 237.139 639.282 321.577 639.282 394.388 639.282 428.044 639.282 541.852 639.282 839.222 621.652 839.222 621.652 9.522"/><polygon class="cls-26" points="40.652 4.67 50.652 4.67 50.652 52.409 40.652 42.748 40.652 4.67"/><polygon class="cls-27" points="50.652 834.37 48.893 834.37 50.652 832.564 50.652 834.37"/><polygon class="cls-28" points="195.652 683.626 207.652 671.3 207.652 834.37 195.652 834.37 195.652 683.626"/><polygon class="cls-29" points="164.652 715.468 176.652 703.142 176.652 834.37 164.652 834.37 164.652 715.468"/><polygon class="cls-30" points="226.652 651.784 238.652 639.458 238.652 801.925 226.652 814.523 226.652 651.784"/><polygon class="cls-31" points="100.652 781.206 112.652 768.88 112.652 834.37 100.652 834.37 100.652 781.206"/><polygon class="cls-32" points="131.652 749.364 145.652 734.984 145.652 834.37 131.652 834.37 131.652 749.364"/><polygon class="cls-33" points="69.652 813.048 81.652 800.722 81.652 834.37 69.652 834.37 69.652 813.048"/><polygon class="cls-34" points="81.652 4.67 81.652 82.357 69.652 70.764 69.652 4.67 81.652 4.67"/></g></g></svg>