<svg xmlns="http://www.w3.org/2000/svg" viewBox="0 0 4033.8683 856.511"><defs><style>.cls-1,.cls-2{fill:#fff;stroke:#fff;stroke-miterlimit:10;}.cls-1{stroke-width:10px;}</style></defs><g id="Layer_2" data-name="Layer 2"><g id="Calque_1" data-name="Calque 1"><path class="cls-1" d="M1766.3793,487.1149,2092.7469,7.7685h68.8411L1794.426,549.5854V836.428h-57.3666V549.5854L1369.9,7.7685H1438.74Z"/><path class="cls-1" d="M2742.5564,851.5031a408.9287,408.9287,0,0,1-210.3513-56.73c-202.4239-118.9163-270.12-379.4142-151.2042-581.8384A425.0916,425.0916,0,0,1,2532.2051,61.73a418.3512,418.3512,0,0,1,420.7044,0c202.4242,118.9163,270.12,379.4143,151.2039,581.8384A425.086,425.086,0,0,1,2952.91,794.7727,409.0217,409.0217,0,0,1,2742.5564,851.5031Zm0-787.8607a348.8722,348.8722,0,0,0-181.0287,49.0822,365.4885,365.4885,0,0,0-131.9466,498.466,368.3718,368.3718,0,0,0,131.9466,132.587,358.3848,358.3848,0,0,0,362.0575,0,363.717,363.717,0,0,0,131.31-132.587,369.6371,369.6371,0,0,0,0-365.883,364.0311,364.0311,0,0,0-131.31-132.583A348.96,348.96,0,0,0,2742.5564,63.6424Z"/><path class="cls-1" d="M3987.4252,486.2562a197.3248,197.3248,0,0,1,41.4326,123.0223,205.9939,205.9939,0,0,1-19.7587,87.33,232.4451,232.4451,0,0,1-56.7339,75.8527,278.9183,278.9183,0,0,1-89.8762,51.6316,320.7464,320.7464,0,0,1-108.9984,18.4858H3448.8l1.2725-828.6569h237.1227q115.9928,0,184.8542,65.0186a206.3229,206.3229,0,0,1,49.0822,67.5675,190.6585,190.6585,0,0,1,17.2093,79.0421,187.0846,187.0846,0,0,1-23.585,93.062q-23.6049,42.0705-58.0029,65.0186l-11.4741,7.6482q24.1991,7.6535,42.07,15.3A251.1047,251.1047,0,0,1,3987.4252,486.2562Zm-479.9807-111.55h177.2029a358.26,358.26,0,0,0,57.3686-3.8223,231.0035,231.0035,0,0,0,45.8933-12.75q33.1364-14.0114,63.1052-48.4422,29.943-34.4223,29.96-84.1409a136.7168,136.7168,0,0,0-22.3117-74.58q-22.32-35.0517-66.2915-56.73-43.98-21.666-105.1756-21.6752H3507.4436Zm360.7811,385.0088q49.7239-25.4881,76.4913-65.6546a150.3323,150.3323,0,0,0,26.7736-84.7809,142.7871,142.7871,0,0,0-31.2363-89.8761,192.173,192.173,0,0,0-74.58-59.28q-61.1908-26.7741-154.2547-26.774H3507.4428V785.2133H3753.49q65.0178-.0019,114.7355-25.4993Z"/><polygon class="cls-2" points="1314.282 3.401 1163.372 3.401 812.095 326.477 812.095 8.253 676.237 8.253 676.237 232.963 676.237 235.87 676.237 320.309 676.237 393.119 676.237 426.774 676.237 540.584 676.237 837.954 812.095 837.954 812.095 522.696 1107.774 833.102 1266.626 833.102 873.467 429.266 1314.282 3.401"/><polygon class="cls-2" points="412.652 399.861 397.652 385.37 397.652 228.196 412.652 241.993 412.652 399.861"/><polygon class="cls-2" points="342.652 332.236 325.652 315.813 325.652 161.976 342.652 177.612 342.652 332.236"/><polygon class="cls-2" points="306.652 297.457 290.652 281.999 290.652 129.787 306.652 144.502 306.652 297.457"/><polygon class="cls-2" points="378.652 367.016 361.652 350.592 361.652 195.086 378.652 210.722 378.652 367.016"/><polygon class="cls-2" points="397.652 473.872 412.652 458.464 412.652 616.99 397.652 632.737 397.652 473.872"/><polygon class="cls-2" points="325.652 547.828 342.652 530.365 342.652 690.477 325.652 708.323 325.652 547.828"/><polygon class="cls-2" points="361.652 510.849 378.652 493.387 378.652 652.683 361.652 670.531 361.652 510.849"/><polygon class="cls-2" points="290.652 583.777 306.652 567.344 306.652 728.269 290.652 745.066 290.652 583.777"/><polygon class="cls-2" points="477.652 548.753 465.652 561.35 465.652 290.737 477.652 301.774 477.652 548.753"/><polygon class="cls-2" points="100.652 2.401 112.652 2.401 112.652 110.037 100.652 98.444 100.652 2.401"/><polygon class="cls-2" points="431.652 438.948 442.052 428.266 431.652 418.218 431.652 259.467 446.652 273.262 446.652 581.297 431.652 597.045 431.652 438.948"/><polygon class="cls-2" points="271.652 263.645 257.652 250.12 257.652 99.437 271.652 112.313 271.652 263.645"/><polygon class="cls-2" points="238.652 231.763 226.652 220.17 226.652 70.925 238.652 81.961 238.652 231.763"/><polygon class="cls-2" points="176.652 171.866 164.652 160.273 164.652 13.902 176.652 24.939 176.652 171.866"/><polygon class="cls-2" points="207.652 201.814 195.652 190.222 195.652 42.414 207.652 53.45 207.652 201.814"/><polygon class="cls-2" points="145.652 141.918 131.652 128.392 131.652 2.401 145.652 2.401 145.652 141.918"/><rect class="cls-2" x="541.6519" y="7.2536" width="20" height="829.7004"/><polygon class="cls-2" points="21.652 2.401 21.652 22.123 1.237 2.401 21.652 2.401"/><rect class="cls-2" x="580.6519" y="7.2536" width="22" height="829.7004"/><polygon class="cls-2" points="496.652 319.248 503.424 325.477 503.424 7.253 522.652 7.253 522.652 836.954 503.424 836.954 503.424 521.696 496.652 528.808 496.652 319.248"/><polygon class="cls-2" points="257.652 617.673 271.652 603.294 271.652 765.013 257.652 779.711 257.652 617.673"/><polygon class="cls-2" points="621.652 7.253 639.282 7.253 639.282 231.963 639.282 234.87 639.282 319.309 639.282 392.119 639.282 425.775 639.282 539.584 639.282 836.954 621.652 836.954 621.652 7.253"/><polygon class="cls-2" points="40.652 2.401 50.652 2.401 50.652 50.14 40.652 40.479 40.652 2.401"/><polygon class="cls-2" points="50.652 832.102 48.893 832.102 50.652 830.295 50.652 832.102"/><polygon class="cls-2" points="195.652 681.357 207.652 669.032 207.652 832.102 195.652 832.102 195.652 681.357"/><polygon class="cls-2" points="164.652 713.199 176.652 700.873 176.652 832.102 164.652 832.102 164.652 713.199"/><polygon class="cls-2" points="226.652 649.516 238.652 637.19 238.652 799.657 226.652 812.255 226.652 649.516"/><polygon class="cls-2" points="100.652 778.938 112.652 766.612 112.652 832.102 100.652 832.102 100.652 778.938"/><polygon class="cls-2" points="131.652 747.095 145.652 732.716 145.652 832.102 131.652 832.102 131.652 747.095"/><polygon class="cls-2" points="69.652 810.779 81.652 798.454 81.652 832.102 69.652 832.102 69.652 810.779"/><polygon class="cls-2" points="81.652 2.401 81.652 80.088 69.652 68.496 69.652 2.401 81.652 2.401"/></g></g></svg>