<svg xmlns="http://www.w3.org/2000/svg" viewBox="0 0 3573.6774 585.1519"><defs><style>.cls-1{fill:#243a0a;}</style></defs><g id="Layer_2" data-name="Layer 2"><g id="Layer_1-2" data-name="Layer 1"><g id="Layer_2-2" data-name="Layer 2"><g id="Layer_1-2-2" data-name="Layer 1-2"><path class="cls-1" d="M0,272.3741c16.0888-4.2089,32.07-8.9024,48.2976-12.4856,15.2068-3.358,30.7022-7.8564,46.0206-7.6738,20.69.2463,39.5779-4.2014,58.4882-11.519,20.3936-7.8917,41.6554-13.2851,58.2819-29.31,4.0491-3.9025,13.6184-3.3444,20.4885-2.8031,9.9871.7869,15.4253-2.2878,18.3022-12.1737,5.36-18.4175,22.48-27.1214,34.8881-39.69,1.0994-1.1135,3.4333-1.4125,5.1957-1.4174,30.807-.0825,61.6139-.0594,93.0772-.0594V180.797l2.1475,1.55c6.94-7.2893,13.5444-14.9461,20.98-21.6915,3.0943-2.8069,7.9308-5.0963,12.0263-5.1819,23.2866-.4865,46.5918-.4294,69.8826-.0651a29.27,29.27,0,0,1,13.1326,3.7377c21.0858,11.6754,40.5259,26.6564,64.4325,32.6068a146.4259,146.4259,0,0,0,25.79,3.5419c9.0912.5909,18.3672,1.0588,27.3564-.063,18.0223-2.2493,30.358,6.4123,39.4389,20.0333,6.1156,9.1735,13.0065,12.21,23.943,11.8578,27.0465-.87,54.1411-.3868,81.2136-.1433,3.0208.0272,7.8329,1.1919,8.7589,3.2182,10.5155,23.01,32.5056,32.23,52.3989,43.7337,7.1952,4.1608,10.8547,9.2619,12.2828,17.2173,2.21,12.3118,5.2685,24.472,8.0914,37.2573l-10.7227,1.5308a107.4988,107.4988,0,0,0,.0633,10.7819c.7041,7.0016-.9987,12.7859-6.4857,17.6154-7.9492,6.9963-4.3693,16.3654-3.66,24.7422.09,1.0686,7.947,2.3336,12.1042,2.0456,11.0949-.7687,22.1346-2.334,33.6689-3.6361.4108,6.74.6907,11.3331,1.0218,16.7644,15.368,0,30.4449.5481,45.4259-.4052,3.52-.2239,8.2816-4.8973,9.759-8.6008,4.0382-10.1216,6.2551-20.9524,9.9712-31.2222,1.563-4.3192,4.7273-8.2464,7.8334-11.7633,2.2207-2.5144,5.8392-3.7453,8.3489-6.07,16.224-15.028,34.6107-13.5318,53.5441-7.0207,28.3928,9.7638,58.4068,17.1939,71.8133,51.1885,11.7886-17.3521,21.985-31.8992,31.6821-46.7706,8.675-13.3045,21.8844-19.57,36.4981-19.9318,39.9579-.9883,79.9751-1.0439,119.9261.0642,11.5681.3208,22.9919,5.8165,34.4807,8.9454,14.3388,3.905,28.499,4.9608,41.7032-3.5429,8.2322-5.3015,16.1884-5.0736,25.7462-2.7631,52.5387,12.6979,101.3036,34.9186,150.3683,56.6958,12.3252,5.47,26.5027,6.864,39.89,9.8555,12.5032,2.794,24.6073,5.4872,35.9787,12.6768,5.6407,3.5663,15.42.62,25.0339.62,3.1458,9.5868,6.58,21.1557,10.7987,32.4329a72.6181,72.6181,0,0,0,8.4823,15.3427c2.8267,4.1093,7.3661,7.1322,9.8217,11.3955,13.5786,23.5764,37.2938,34.6836,58.9909,48.2312,2.6739,1.67,6.5011,2.0613,9.8007,2.085,23.61.17,47.2339.5142,70.8286-.12,9.309-.25,18.5127-3.2133,27.84-4.2993,11.1771-1.3012,22.2509-2.9721,31.4771,7.2247,2.2477,2.4839,10.3589,1.9095,14.478-.0166,6.7016-3.1337,12.6114-8.2259,18.2687-13.16,1.9351-1.6881,2.85-5.36,2.9508-8.1713.3493-9.7172.134-19.4545.134-30.3868h24.8094c.1383-11.2459.1771-20.7972,7.545-29.82,7.0871-8.6791,13.9681-13.6714,25.9929-10.8154V351.0444c21.6094,16.7992,46.5632,20.3083,69.5308,28.9534,5.9585,2.2428,9.0759,1.2831,13.337-3.7414,7.2481-8.5471,9.9259-17.612,8.8368-28.4744-.591-5.8934-.1053-11.8943-.1053-18.2552,8.3012-3.3731,16.6486-6.1829,24.379-10.1806,3.2839-1.6983,6.2789-5.4922,7.6661-9.0149,4.3723-11.1015,7.9209-22.5258,12.5748-36.1227,12.2647,12.4985,21.7122,22.9264,32.1074,32.31,3.9365,3.5532,9.8659,5.6725,15.2267,6.7291a186.4173,186.4173,0,0,0,30.8128,3.7681c6.8084.1856,10.7042,2.823,13.0225,8.5124,4.1313,10.1381,8.3969,20.2521,11.8288,30.6316,1.86,5.6241,4.35,7.8613,10.5523,7.6983,26.4179-.6945,52.85-.849,79.2774-1.1925,3.7755-.0491,7.77-.87,11.2881.0675,13.0071,3.4667,20.0521-3.3222,25.4124-13.6331,1.1553-2.2226,2.8385-4.2621,3.5587-6.606,8.0007-26.0425,29.2945-41.5208,47.5478-59.3482,1.5841-1.5465,5.9583-2.1173,7.9685-1.0808,25.5437,13.17,52.4052,13.5257,79.9571,9.2612,12.9124-1.9987,14.765-.464,18.3343,12.0295a60.69,60.69,0,0,1,2.1064,7.2108c2.7124,17.6037,11.9093,29.0954,29.0989,35.6845,14.94,5.726,16.1067,11.4031,9.8883,26.6622-6.4909,15.9293-6.2317,17.517,7.1938,28.6692,5.7849,4.8054,11.6141,10.0281,18.3222,13.12,6.1678,2.8421,13.4879,3.6584,20.4005,4.3049,7.4429.6962,15.0022.1573,23.0862.1573a31.4975,31.4975,0,0,0,.6215-6.0211,117.5318,117.5318,0,0,1,9.1813-56.8839c1.1765-2.7208.3307-7.2828-1.2511-10.0379-4.8354-8.421-10.7162-16.2393-15.6976-24.5847-1.8166-3.0431-2.5383-6.8509-3.2579-10.4107-2.7749-13.7217,3.4459-21.2865,15.07-29.17,19.6-13.2933,39.6561-17.5068,63.181-18.3959,31.2007-1.1794,58.3043,4.3317,81.0145,26.0024,13.5991,12.9768,27.1333,15.7054,43.1748,3.9806,4.8583-3.551,12.0745-3.8933,19.6146-6.12,0,6.4389.2854,10.732-.0675,14.9723-.52,6.2461-1.51,12.4528-2.2742,18.6794-3.669,29.8687,3.8265,39.4824,34.1014,42.1324,6.27.5488,9.8021,2.4813,11.884,8.1554,2.9093,7.9285,6.7965,15.5649,8.9864,23.67,1.9209,7.1087,5.82,8.9588,11.6728,6.1524a325.2318,325.2318,0,0,0,28.9292-15.5163c17.42-10.6388,34.5045-21.8242,51.74-32.7643a35.529,35.529,0,0,1,3.2169-1.5348c5.2656,8.5044,10.15,17.2078,15.9277,25.276,1.9772,2.7616,6.1063,5.3842,9.398,5.5753,14.4328.8376,29.03,2.0113,43.3623.7483,27.4185-2.4161,43.4043-25.3573,37.0979-54.1243-13.8914,7.53-10.3359-8.7857-16.7456-12.4-4.7468-2.6766-7.4107-8.7771-11.8272-12.3328-15.5988-12.5579-17.9961-30.6878-5.6261-46.2641,1.5621-1.9674,3.4412-3.768,4.6152-5.9453,6.8056-12.62,16.7606-18.28,31.4491-16.0679,2.91.4382,7.6313-2.4734,9.501-5.21,10.6085-15.53,20.6584-31.4423,30.7841-47.2971,4.9276-7.7155,10.7686-12.6876,20.7916-13.95,14.2717-1.7978,28.17-6.3947,42.3993-8.7672,4.9537-.826,11.62-.2229,15.413,2.5613,9.1332,6.7033,18.4768,7.687,29.2137,6.3794,25.5953-3.1172,51.7632-3.3526,76.7683-8.9165,19.5345-4.3466,38.1974-3.2856,57.5632-3.2156,13.5941.0491,27.2615-6.4159,40.8-10.3053a127.9375,127.9375,0,0,0,19.4713-6.9924c11.8265-5.6029,23.4087-7.8951,36.0548.6478-8.8619-14.66.0876-23.3359,8.4407-31.838,5.7082-5.8106,11.559-11.8064,18.3445-16.1767,18.1017-11.6586,30.5646-28.4707,44.1423-44.5252,12.33-14.5786,26.1411-27.9407,39.6772-41.4618,6.6624-6.655,14.5-8.966,24.0284-4.7293,5.6112,2.4951,12.1047,3.0155,18.4552,4.4828V585.1519H0Z"/></g></g></g></g></svg>