<svg xmlns="http://www.w3.org/2000/svg" viewBox="0 0 3294.6348 796.3711"><defs><style>.cls-1{fill:#243a0a;}</style></defs><g id="Layer_2" data-name="Layer 2"><g id="Layer_1-2" data-name="Layer 1"><path class="cls-1" d="M3294.6344,261.4609q.0018-130.73,0-261.4609H1.0311Q.5171,392.9384.0017,785.8765c-.0038,3.3635,0,6.7268,0,10.4946H17.51q-.01-27.3087.002-54.5315c.005-11.6438.0165-11.9541,11.4541-11.8557,5.316.0456,11.1351.4639,15.8148,2.6579,8.3319,3.9058,15.0727,1.4122,20.6662-3.9606,12.1139-11.6363,24.5649-23.1548,35.0589-36.1861,13.8318-17.176,28.031-33.5608,46.3054-46.2573,6.2364-4.3325,11.4524-10.2854,16.6148-15.97,5.9-6.4966,9.756-13.7278,1.6787-23.3584,3.4386.5224,5.5976.2153,6.83,1.1408,7.7453,5.8182,15.2732,3.4014,23.2362.4078,12.2467-4.6041,24.7757-8.4515,37.0969-12.8648a67.1166,67.1166,0,0,1,36.58-2.8557c17.5053,3.425,33.6653-5.8875,50.7815-7.2229,18.0193-1.4055,36.1561-2.1389,53.9869-4.8442,12.3872-1.879,22.7053-.0442,32.3482,7.7854,1.6123,1.3088,4.92,1.3552,7.2092.8718,14.5557-3.0747,28.9321-7.2012,43.6027-9.4485,7.8722-1.2058,12.2051-5.3662,15.9877-11.1912,9.3089-14.334,18.64-28.6567,27.65-43.1772,2.784-4.4866,5.718-7.5642,11.3595-6.1909,18.5756,4.5222,23.8947-11.2486,32.5885-21.5262,6.5906-7.7912,6.4672-17.3471,3.4807-26.2805a29.4068,29.4068,0,0,0-9.46-12.71,55.3174,55.3174,0,0,1-16.9861-21.2146c-.96-2.1673-5.6616-2.678-9.668-4.387-5.119-21.71,4.7922-41.4409,28.3035-45.2927,15.6231-2.56,32.0114-.6216,48.0482-.27,1.8632.041,4.1656,2.4774,5.41,4.3661,4.85,7.3611,9.3554,14.9477,14.4837,23.2517,15.7985-10.0606,31.2373-20.1358,46.934-29.7925,8.9368-5.4988,18.1411-10.6186,27.5184-15.3247,6.061-3.0421,10-2.396,12,6.1025,2.15,9.1353,7.14,17.6458,11.3382,26.2095.6409,1.3074,3.6474,1.7427,5.641,2.0444,5.04.7627,10.2581.689,15.17,1.9009,13.3064,3.2823,17.2468,8.479,16.9268,22.27-.2693,11.6045-1.0983,23.1953-1.6309,34.795-.114,2.4687-.0171,4.9472-.0171,7.9511,12.8287,1.0325,22.175-5.4633,31.7519-10.645,4.3271-2.3411,7.18-2.4858,11.2417.4314,13.662,9.811,27.5058,19.3892,41.5978,28.5689a25.0929,25.0929,0,0,0,12.4874,3.96q28.7.5874,57.384.0171a30.8323,30.8323,0,0,0,12.68-3.6089c5.8318-2.9314,11.2-6.7866,16.7532-10.2691,17.7217-11.1137,18.2052-11.1616,16.2926-32.2265-.4887-5.3892-4.1452-11.312-8.0139-15.42-11.514-12.2265-10.5692-24.8227-3.45-38.4736a19.0259,19.0259,0,0,0,1.3864-8.2623c.152-10.5155.061-21.0343.061-31.3378,24.3195-2.9941,46.2138-.4336,63.1308,19.3529,4.8934,5.7234,6.8734,10.8521,3.448,17.6688-1.15,2.29-2.132,4.6641-3.19,7-3.9366,8.6936-2.17,14.6311,5.7867,19.4463a3.1487,3.1487,0,0,0,.7445.4129c20.8493,5.6118,28.2833,21.54,32.2452,40.7492,2.3387,11.3387,4.2595,11.9134,15.764,10.9248,9.3457-.8027,18.7638-.8444,28.0816-1.854,15.09-1.6345,28.8517,2.6849,41.9706,9.1734,5.56,2.75,9.0767,1.499,12.9749-2.3264,8.7605-8.5965,17.7373-16.9729,26.47-25.5972a28.3235,28.3235,0,0,0,4.8493-6.8525,82.8538,82.8538,0,0,0,4.4865-10.15c7.1322-19.2432,17.661-30.67,41.4637-28.0466,23.3622,2.5749,47.3.1845,70.9723-.4717,6.0347-.167,8.5224,2.3208,10.3312,7.56,3.1257,9.0532,6.8052,17.9194,10.3707,26.8159,2.2047,5.5027,5.7935,8.1086,12.3526,8.2517a154.8944,154.8944,0,0,1,27.9367,3.4734c6.7353,1.3987,14.3424,2.7221,16.2731,11.5393.2084.9519,1.385,1.7854,2.2646,2.4819,7.4786,5.9219,14.9919,11.8,24.3754,19.1673,3.0934-8.2315,7.4158-16.4815,9.13-25.2408,1.6024-8.1867,4.883-12.687,12.79-15.5683,18.418-6.7107,19.2072-7.1553,17.915-26.364-.75-11.1487,4.4587-18.3931,10.6639-25.7742a7.2634,7.2634,0,0,1,6.37-1.887c21.8976,8.0518,45.6372,11.5629,66.0494,27.064V352.7015c11.7746,3.0844,17.6475-2.9259,24.2437-10.53,6.9913-8.0594,6.0234-16.6122,6.29-26.2493H1560.8c0-8.5771.5323-16.4847-.162-24.2832-.5958-6.6907,1.2722-11.1167,7.2119-14.3838,3.9606-2.1782,7.2561-5.53,11.0641-8.029,6.43-4.22,12.3625-4.8272,18.1446,1.8027,6.8231,7.8234,16.6916,6.4946,24.7507,4.39,31.1846-8.1433,62.7913-2.8847,94.1536-4.32,2.0029-.0916,4.11,1.6076,6.134,2.55,27.1549,12.6482,46.5635,34.0345,64.31,57.2308a28.9,28.9,0,0,1,3.9768,8.3595c3.6135,10.7518,7.0191,21.5736,10.67,32.8893a34.34,34.34,0,0,1,7.5692-1.7036,49.3778,49.3778,0,0,1,20.9568,3.9514c12.9362,5.7808,27.6228,7.6694,41.6029,11.079,4.9264,1.2015,10.2667,1.2987,14.8447,3.2468,28.7765,12.2455,57.0087,25.8651,86.184,37.0389,21.2722,8.147,43.7026,13.2854,65.6669,19.59a7.5749,7.5749,0,0,0,5.6649-.7471c19.4778-13.4228,39.4358-9.7117,60.1846-3.2021a114.688,114.688,0,0,0,31.851,4.3732c29.97.5613,59.9595.4051,89.937.1106,16.2536-.16,29.6934-6.0527,38.8074-20.5283,8.0435-12.7754,16.8638-25.0622,26.05-38.6111,5.9234,7.4053,11.1185,14.7762,17.2551,21.2559a43.4118,43.4118,0,0,0,14.009,10.1855,349.1258,349.1258,0,0,0,41.9758,15.5582c11.56,3.2094,23.4043,3.6577,34.882-3.514,13.6289-8.5171,24.1978-18.2861,25.1577-35.4294a22.9413,22.9413,0,0,1,1.6209-5.7378c5.2681-15.6915,6.72-16.7434,22.9325-16.7434H2477.69c.65,1.01,1.17,1.4463,1.1955,1.9092.7309,13.4276,6.44,16.695,22.1425,12.6576,3.7981-.9765,7.5713-2.1462,11.43-2.7578a59.9256,59.9256,0,0,1,8.9007-.0844c.7973,10.8352,2.9223,21.1033-6.8978,29.3638-2.312,1.9443-2.23,7.0481-2.7036,10.7678a88.3213,88.3213,0,0,0-.0883,10.6392l-9.4452.6088c3.3228,14.5535,6.3892,28.5838,9.8727,42.51.4513,1.8057,2.8615,3.38,4.6956,4.5342,6.511,4.0955,12.9452,8.4053,19.8138,11.8194a67.9113,67.9113,0,0,1,30.5648,28.6308c1.46,2.6607,6.12,4.99,9.34,5.0384,26.8337.3986,53.6789.0376,80.5119.4553,3.5322.0549,7.3892,2.7278,10.4085,5.0727,2.61,2.0271,4.0305,5.5093,6.3445,8.0064,8.43,9.0932,17.09,17.2636,31.3017,15.4316,8.1445-1.05,16.5869.4011,24.8062-.3071,20.0029-1.7232,38.3,4.8706,53.7236,15.5476,24.0915,16.677,49.167,22.6426,78.3386,21.8674,23.7434-.6306,44.7053-1.7419,57.1184-26.4944q.921.9489,1.8423,1.8975v23.8269c29.2158,0,57.4077.0147,85.5994-.0454a6.0435,6.0435,0,0,0,3.9375-1.0876c11.6565-11.7981,27.4761-20.0894,32.4321-37.5811,2.2014-7.769,6.8171-10.9077,14.8547-9.5691,11.73,1.9534,20.858-2.415,30.1221-9.94,7.84-6.3682,18.2542-9.6182,27.6416-14.0086,3.5913-1.68,7.638-2.3852,11.2322-4.06,20.529-9.5669,41.9963-12.1093,64.5832-11.8794,12.6358.1282,25.3934-4.948,37.98-8.1377,21.8-5.5246,43.509-11.406,65.2561-17.1374Q3294.5923,370.629,3294.6344,261.4609Z"/></g></g></svg>